<?xml version="1.0" standalone="no"?>
<!DOCTYPE svg PUBLIC "-//W3C//DTD SVG 20010904//EN" "http://www.w3.org/TR/2001/REC-SVG-20010904/DTD/svg10.dtd">
<svg version="1.0" xmlns="http://www.w3.org/2000/svg" width="512.000000pt" height="512.000000pt"
    viewBox="0 0 512.000000 512.000000" preserveAspectRatio="xMidYMid meet">

    <g transform="translate(0.000000,512.000000) scale(0.100000,-0.100000)" fill="#000000" stroke="none">
        <path d="M1560 2465 l0 -1155 205 0 205 0 0 458 c1 498 6 567 55 664 35 70 96
131 159 160 73 32 219 32 291 0 60 -27 98 -62 131 -119 48 -80 48 -82 54 -633
l5 -525 205 0 205 0 3 520 c2 306 -1 560 -7 617 -38 350 -232 538 -556 538
-166 0 -277 -40 -371 -134 -28 -29 -66 -78 -84 -109 -27 -49 -36 -57 -61 -57
l-29 0 0 465 0 465 -205 0 -205 0 0 -1155z" />
        <path d="M3363 1866 c-194 -91 -243 -340 -96 -497 119 -127 328 -127 451 2
114 118 107 332 -14 439 -95 83 -234 105 -341 56z" />
    </g>
</svg>