<?xml version="1.0" standalone="no"?>
<!DOCTYPE svg PUBLIC "-//W3C//DTD SVG 20010904//EN"
 "http://www.w3.org/TR/2001/REC-SVG-20010904/DTD/svg10.dtd">
<svg version="1.0" xmlns="http://www.w3.org/2000/svg"
 width="500.000000pt" height="500.000000pt" viewBox="0 0 500.000000 500.000000"
 preserveAspectRatio="xMidYMid meet">

<g transform="translate(0.000000,500.000000) scale(0.100000,-0.100000)"
fill="#000000" stroke="none">
<path d="M620 2332 c0 -1182 2 -2151 4 -2153 2 -2 176 -3 385 -1 l381 2 0 794
c0 823 6 988 40 1123 67 261 239 445 468 499 91 22 268 22 352 0 170 -43 288
-140 363 -298 84 -175 80 -112 84 -1174 l4 -941 247 -7 c201 -5 386 -4 503 3
15 1 16 94 13 1049 -1 683 -6 1074 -13 1126 -69 502 -337 829 -761 927 -122
28 -347 36 -470 15 -307 -50 -535 -214 -673 -484 l-42 -83 -55 3 -55 3 -3 873
-2 872 -385 0 -385 0 0 -2148z"/>
<path d="M4080 1227 c-103 -31 -162 -68 -250 -156 -87 -88 -122 -148 -150
-257 -67 -263 51 -529 289 -653 107 -56 193 -75 306 -68 254 16 467 186 530
423 21 79 21 224 0 305 -44 171 -157 302 -328 379 -125 56 -267 65 -397 27z"/>
</g>
</svg>
